<?xml version="1.0" standalone="no"?>
<!DOCTYPE svg PUBLIC "-//W3C//DTD SVG 20010904//EN"
 "http://www.w3.org/TR/2001/REC-SVG-20010904/DTD/svg10.dtd">
<svg version="1.0" xmlns="http://www.w3.org/2000/svg"
 width="1920.000000pt" height="481.000000pt" viewBox="0 0 1920.000000 481.000000"
 preserveAspectRatio="xMidYMid meet">

<g transform="translate(0.000000,481.000000) scale(0.100000,-0.100000)"
fill="#000000" stroke="none">
<path d="M1460 3918 c0 -485 -3 -885 -7 -888 -5 -4 -333 -154 -730 -335 -398
-180 -723 -330 -723 -334 0 -10 1453 -866 1470 -866 24 0 1471 859 1468 871
-5 21 -1463 2434 -1470 2434 -4 0 -8 -397 -8 -882z"/>
<path d="M7664 3906 c-19 -14 -19 -40 -22 -1271 l-2 -1256 24 -24 c30 -30 50
-31 76 -5 20 20 21 30 19 423 -1 341 1 413 15 472 60 252 240 405 477 405 184
0 329 -110 400 -302 23 -62 23 -73 29 -521 l5 -459 24 -19 c30 -24 46 -24 72
2 20 20 20 27 17 472 -3 390 -6 460 -21 512 -57 197 -188 348 -351 405 -223
76 -472 -9 -623 -213 l-43 -59 0 709 c0 675 -1 711 -18 726 -23 21 -52 22 -78
3z"/>
<path d="M6461 3243 c-20 -17 -21 -28 -24 -258 l-2 -240 -170 -5 -169 -5 -15
-26 c-13 -24 -13 -29 2 -53 l17 -26 168 -2 167 -3 3 -636 c2 -693 0 -662 58
-661 14 0 31 5 37 11 9 9 13 180 17 649 l5 637 169 3 c140 2 173 5 188 19 23
20 23 45 1 72 -17 20 -29 21 -188 23 l-170 3 -2 240 c-3 230 -4 241 -24 258
-12 9 -27 17 -34 17 -7 0 -22 -8 -34 -17z"/>
<path d="M4592 2750 c-190 -50 -342 -179 -440 -375 -89 -179 -101 -393 -33
-593 41 -117 84 -185 181 -283 70 -71 100 -93 170 -127 111 -52 174 -66 295
-65 178 1 345 62 461 167 113 102 149 187 93 217 -34 17 -61 3 -106 -55 -114
-148 -286 -224 -483 -213 -185 10 -342 109 -443 279 -41 68 -87 201 -87 249
l0 29 598 0 c328 0 602 4 608 8 30 20 36 53 25 137 -15 110 -35 174 -82 266
-72 139 -184 251 -317 318 -119 60 -302 77 -440 41z m329 -124 c177 -61 323
-228 374 -431 27 -106 92 -95 -540 -95 l-555 0 0 33 c0 46 52 187 91 249 147
231 390 325 630 244z"/>
<path d="M10072 2750 c-190 -50 -342 -179 -440 -375 -89 -179 -101 -393 -33
-593 41 -117 84 -185 181 -283 70 -71 100 -93 170 -127 111 -52 174 -66 295
-65 178 1 345 62 461 167 113 102 149 187 93 217 -34 17 -61 3 -106 -55 -114
-148 -286 -224 -483 -213 -185 10 -342 109 -443 279 -41 68 -87 201 -87 249
l0 29 598 0 c328 0 602 4 608 8 30 20 36 53 24 140 -34 257 -182 472 -398 581
-119 60 -302 77 -440 41z m329 -124 c177 -61 323 -228 374 -431 27 -106 92
-95 -540 -95 l-555 0 0 33 c0 46 52 187 91 249 147 231 390 325 630 244z"/>
<path d="M13510 2763 c-228 -38 -444 -234 -524 -475 -68 -203 -55 -397 39
-593 158 -325 500 -467 844 -350 102 34 177 80 247 150 98 97 124 168 72 196
-33 18 -63 2 -107 -56 -102 -135 -267 -214 -448 -215 -281 -1 -512 215 -567
528 l-5 32 604 0 604 0 20 25 c16 21 19 36 14 83 -29 331 -244 598 -536 667
-57 14 -198 18 -257 8z m245 -125 c73 -18 178 -81 240 -143 94 -95 157 -219
180 -352 l7 -43 -560 0 -559 0 8 48 c66 351 370 570 684 490z"/>
<path d="M17503 2755 c-131 -29 -281 -132 -343 -234 -14 -22 -28 -41 -32 -41
-5 0 -8 53 -8 118 0 128 -5 142 -51 142 -62 0 -59 34 -59 -705 l0 -674 22 -15
c29 -20 41 -20 66 2 21 17 21 27 25 422 4 451 8 490 73 627 81 171 242 262
445 251 189 -11 324 -129 386 -338 13 -46 17 -131 22 -505 l6 -449 26 -15 c24
-13 29 -13 52 2 l25 16 5 378 c4 300 8 392 21 446 68 290 222 451 441 465 200
12 358 -101 427 -306 22 -65 23 -81 25 -507 2 -242 5 -450 8 -462 12 -51 98
-50 111 1 3 12 4 220 2 462 -4 422 -5 442 -27 514 -34 113 -78 187 -156 266
-80 81 -146 117 -255 140 -132 28 -282 0 -396 -74 -75 -49 -170 -151 -210
-226 l-32 -59 -30 64 c-89 185 -246 292 -445 304 -52 3 -105 0 -144 -10z"/>
<path d="M11706 2718 c-14 -20 -16 -101 -16 -678 0 -721 -2 -700 59 -700 55 0
56 1 62 409 4 313 8 386 23 436 65 230 216 381 431 431 75 18 89 27 99 61 11
34 -25 63 -76 63 -143 -1 -322 -105 -431 -250 l-47 -62 0 134 c0 151 -9 178
-60 178 -18 0 -34 -8 -44 -22z"/>
<path d="M15076 2712 c-16 -18 -17 -53 -14 -478 l3 -459 27 -80 c53 -156 148
-277 267 -338 85 -44 147 -59 246 -58 181 0 346 97 450 263 17 27 32 48 35 48
3 0 4 -54 2 -120 -3 -117 -3 -120 23 -145 18 -19 31 -24 48 -20 48 15 47 -2
47 706 0 740 3 704 -64 697 -54 -5 -56 -19 -56 -383 0 -366 -10 -470 -58 -609
-68 -198 -194 -305 -380 -322 -177 -17 -334 71 -411 229 -59 120 -61 140 -61
607 0 321 -3 431 -13 450 -16 33 -66 39 -91 12z"/>
<path d="M2195 1636 l-730 -432 -2 -597 c-2 -328 1 -597 6 -597 5 0 305 417
667 927 362 511 691 974 731 1031 40 56 70 102 65 101 -4 0 -335 -195 -737
-433z"/>
</g>
</svg>
